<?xml version="1.0" encoding="UTF-8"?>
<svg fill="#FFFFFF" width="100pt" height="100pt" version="1.1" viewBox="0 0 100 100" xmlns="http://www.w3.org/2000/svg">
 <g>
  <path d="m49.758 63.309c-12.801 0-24.832-1.8555-33.004-5.0898-0.60156-0.23828-0.89453-0.91797-0.66016-1.5195 0.12109-0.30859 0.28125-0.76562 0.28125-1.1484 0-1.5-1.2305-2.7227-2.7422-2.7227-0.89062 0-1.6914 0.44922-2.2031 1.2305-0.18359 0.28125-0.48047 0.47266-0.81641 0.51953-0.33203 0.046875-0.67188-0.050781-0.92969-0.26953-1.9883-1.7109-3.043-3.6836-3.043-5.7109 0-4.1445 4.6484-7.9336 13.082-10.664 8.0508-2.6094 18.719-4.043 30.035-4.043 13.688 0 26.66 2.1523 34.691 5.7578 0.28906 0.12891 0.51562 0.37109 0.62109 0.67187 0.10938 0.30078 0.089844 0.62891-0.050781 0.91406-0.089843 0.18359-0.15234 0.46875-0.15234 0.6875 0 0.83594 0.65625 1.5156 1.4688 1.5156 0.49219 0 0.9375-0.24219 1.1836-0.64453 0.17188-0.28125 0.45703-0.47656 0.78125-0.53906s0.66016 0.015625 0.92188 0.21484c2.4883 1.8711 3.7461 3.9336 3.7461 6.1328 0 4.1797-4.6641 7.9766-13.133 10.699-8.0391 2.582-18.723 4.0078-30.078 4.0078zm-31.133-6.8828c7.8789 2.8906 19.137 4.5391 31.133 4.5391 11.117 0 21.543-1.3828 29.363-3.8945 7.3086-2.3516 11.504-5.4375 11.504-8.4688 0-1.4023-0.96094-2.6484-1.9961-3.5859-0.64062 0.49609-1.4414 0.76953-2.293 0.76953-2.1016 0-3.8125-1.7305-3.8125-3.8594 0-0.17578 0.011718-0.35547 0.039062-0.53516-7.8047-3.2344-19.953-5.1523-32.805-5.1523-11.078 0-21.488 1.3945-29.312 3.9297-7.1758 2.3203-11.461 5.4727-11.461 8.4297 0 1.043 0.48047 2.1055 1.3984 3.125 0.89844-0.78906 2.0469-1.2383 3.2539-1.2383 2.8047 0 5.0859 2.2734 5.0859 5.0664-0.003906 0.30469-0.039062 0.59766-0.097656 0.875z"/>
  <path d="m49.668 92.605h-0.03125c-4.125-0.10547-7.7266-4.7656-10.418-13.48-2.5273-8.1914-3.918-19.031-3.918-30.523 0-15.461 2.6367-29.887 6.875-37.648 0.30469-0.55469 0.99609-0.76953 1.5586-0.48047 0.27344 0.14062 0.62891 0.24219 0.83203 0.24219 0.80859 0 1.4688-0.67969 1.4688-1.5156 0-0.4375-0.15625-0.83984-0.40625-1.0547-0.26172-0.22266-0.41406-0.55078-0.41406-0.89453s0.15234-0.67188 0.41406-0.89453c1.3242-1.125 2.6719-1.668 4.125-1.668 4.1797 0 7.8164 4.6094 10.523 13.328 2.5352 8.1641 3.9297 19.027 3.9297 30.582 0 8.5977-0.76172 16.879-2.207 23.945-1.4375 7.043-3.4883 12.562-5.9297 15.957-0.20312 0.28125-0.51562 0.45703-0.86328 0.48438-0.34375 0.027344-0.68359-0.10156-0.92578-0.34766-0.35547-0.35938-0.89062-0.57812-1.4375-0.57812-1.2109 0-2.1953 1.0117-2.1953 2.2578 0 0.23047 0.070312 0.52344 0.14844 0.83203 0.085937 0.35547 0.003906 0.73047-0.22656 1.0156-0.21094 0.28125-0.54687 0.44141-0.90234 0.44141zm-5.8906-79.645c-3.7969 7.625-6.1289 21.125-6.1289 35.637 0 11.266 1.3555 21.859 3.8164 29.832 1.9102 6.1875 4.3984 10.305 6.8711 11.48 0.20312-2.3477 2.1523-4.1953 4.5195-4.1953 0.6875 0 1.3633 0.16016 1.9648 0.45312 4.3086-6.9531 7.0547-21.453 7.0547-37.57 0-11.328-1.3594-21.941-3.8242-29.887-2.2773-7.3125-5.375-11.68-8.293-11.68-0.58984 0-1.1562 0.15625-1.7344 0.48828 0.23437 0.50391 0.35937 1.0781 0.35937 1.6797 0 2.1289-1.7109 3.8594-3.8125 3.8594-0.27344 0-0.54297-0.042969-0.79297-0.097656z"/>
  <path d="m24.305 81.574c-2.1523 0-3.8477-0.61719-5.043-1.8359-2.9297-2.9883-2.293-8.8672 1.8516-17.008 3.8906-7.6445 10.438-16.348 18.441-24.5 13.211-13.465 27.578-22.512 35.742-22.512 2.1562 0 3.8555 0.61719 5.0508 1.8359 2.9297 2.9844 2.2891 8.8516-1.8516 16.977-3.8789 7.6094-10.426 16.324-18.438 24.531-13.289 13.465-27.656 22.512-35.754 22.512zm50.992-63.512c-7.4609 0-21.473 8.9688-34.074 21.809-7.8398 7.9844-14.238 16.48-18.023 23.922-3.4844 6.8516-4.332 12.199-2.2656 14.305 0.73828 0.75391 1.8711 1.1328 3.3711 1.1328 7.3945 0 21.41-8.9688 34.086-21.812 7.8438-8.0391 14.246-16.547 18.023-23.953 3.4805-6.832 4.3281-12.168 2.2656-14.27-0.74219-0.75-1.8789-1.1328-3.3828-1.1328z"/>
  <path d="m75.297 81.574c-8.168 0-22.531-9.0469-35.746-22.512-8.0117-8.2109-14.562-16.922-18.441-24.531-4.1406-8.1211-4.7773-13.992-1.8516-16.977 1.1953-1.2188 2.8906-1.8359 5.043-1.8359 8.0977 0 22.465 9.0469 35.754 22.508 8.0039 8.1562 14.551 16.855 18.441 24.5 4.1406 8.1406 4.7812 14.023 1.8516 17.008-1.1953 1.2188-2.8945 1.8398-5.0508 1.8398zm-50.992-63.512c-1.5 0-2.6328 0.38281-3.3711 1.1328-2.0625 2.1016-1.2148 7.4375 2.2656 14.27 3.7734 7.4062 10.176 15.914 18.027 23.957 12.602 12.84 26.613 21.805 34.07 21.805 1.5039 0 2.6406-0.38281 3.3789-1.1328 2.0664-2.1055 1.2188-7.4531-2.2656-14.305-3.7852-7.4375-10.188-15.934-18.023-23.922-12.672-12.836-26.688-21.805-34.082-21.805z"/>
  <path d="m44.574 13.059c-2.1016 0-3.8125-1.7305-3.8125-3.8594 0-2.1289 1.7109-3.8594 3.8125-3.8594 2.1016 0 3.8125 1.7305 3.8125 3.8594-0.003907 2.125-1.7148 3.8594-3.8125 3.8594zm0-5.3789c-0.80859 0-1.4688 0.67969-1.4688 1.5156 0 0.83594 0.65625 1.5156 1.4688 1.5156 0.80859 0 1.4688-0.67969 1.4688-1.5156-0.003907-0.83594-0.66016-1.5156-1.4688-1.5156z"/>
  <path d="m86.336 45.785c-2.1016 0-3.8125-1.7305-3.8125-3.8594 0-2.1289 1.7109-3.8594 3.8125-3.8594 2.1016 0 3.8125 1.7305 3.8125 3.8594 0 2.1289-1.7109 3.8594-3.8125 3.8594zm0-5.3789c-0.80859 0-1.4688 0.67969-1.4688 1.5156s0.65625 1.5156 1.4688 1.5156c0.80859 0 1.4688-0.67969 1.4688-1.5156s-0.66016-1.5156-1.4688-1.5156z"/>
  <path d="m52.852 94.922c-2.5039 0-4.5391-2.0625-4.5391-4.6016 0-2.5391 2.0352-4.6016 4.5391-4.6016 2.4609 0 4.5391 2.1094 4.5391 4.6016 0 1.207-0.47266 2.3516-1.3359 3.2305-0.86719 0.88281-2.0039 1.3711-3.2031 1.3711zm0-6.8594c-1.2109 0-2.1953 1.0117-2.1953 2.2578 0 1.2461 0.98828 2.2578 2.1953 2.2578 0.5625 0 1.1055-0.23828 1.5312-0.66797 0.42188-0.42969 0.66406-1.0117 0.66406-1.5898 0-1.2031-1.0234-2.2578-2.1953-2.2578z"/>
  <path d="m13.637 60.617c-2.7539 0-4.9922-2.2734-4.9922-5.0664s2.2383-5.0664 4.9922-5.0664c2.8047 0 5.0859 2.2734 5.0859 5.0664-0.003906 2.7969-2.2852 5.0664-5.0859 5.0664zm0-7.7852c-1.4375 0-2.6484 1.2461-2.6484 2.7227 0 1.4766 1.2148 2.7227 2.6484 2.7227 1.5117 0 2.7422-1.2227 2.7422-2.7227-0.003906-1.5039-1.2305-2.7227-2.7422-2.7227z"/>
  <path d="m49.773 55.379c-3.6406 0-6.5977-3.0312-6.5977-6.7617 0-3.6328 3.0234-6.7031 6.5977-6.7031 3.6719 0 6.6562 3.0078 6.6562 6.7031 0.003906 3.7266-2.9844 6.7617-6.6562 6.7617zm0-11.121c-2.3047 0-4.2539 1.9961-4.2539 4.3594 0 2.3945 1.9492 4.418 4.2539 4.418 2.3789 0 4.3125-1.9805 4.3125-4.418 0.003906-2.3633-1.9727-4.3594-4.3125-4.3594z"/>
  <path d="m13.672 85.156c-0.30859 0-0.60938-0.125-0.82812-0.34375s-0.34375-0.51953-0.34375-0.82812 0.125-0.60938 0.34375-0.82812 0.51953-0.34375 0.82812-0.34375 0.60938 0.125 0.82812 0.34375 0.34375 0.51953 0.34375 0.82812-0.125 0.60938-0.34375 0.82812-0.51953 0.34375-0.82812 0.34375z"/>
  <path d="m27.344 89.062c-0.30859 0-0.60938-0.125-0.82812-0.34375s-0.34375-0.51953-0.34375-0.82812 0.125-0.60938 0.34375-0.82812 0.51953-0.34375 0.82812-0.34375 0.60938 0.125 0.82812 0.34375 0.34375 0.51953 0.34375 0.82812-0.125 0.60938-0.34375 0.82812-0.51953 0.34375-0.82812 0.34375z"/>
  <path d="m27.344 10.938c-0.30859 0-0.60938-0.125-0.82812-0.34375s-0.34375-0.51953-0.34375-0.82812 0.125-0.60938 0.34375-0.82812 0.51953-0.34375 0.82812-0.34375 0.60938 0.125 0.82812 0.34375 0.34375 0.51953 0.34375 0.82812-0.125 0.60938-0.34375 0.82812-0.51953 0.34375-0.82812 0.34375z"/>
  <path d="m13.672 14.844c-0.30859 0-0.60938-0.125-0.82812-0.34375s-0.34375-0.51953-0.34375-0.82812 0.125-0.60938 0.34375-0.82812 0.51953-0.34375 0.82812-0.34375 0.60938 0.125 0.82812 0.34375 0.34375 0.51953 0.34375 0.82812-0.125 0.60938-0.34375 0.82812-0.51953 0.34375-0.82812 0.34375z"/>
  <path d="m87.891 24.609c-0.30859 0-0.60938-0.125-0.82812-0.34375s-0.34375-0.51953-0.34375-0.82812 0.125-0.60938 0.34375-0.82812 0.51953-0.34375 0.82812-0.34375 0.60938 0.125 0.82812 0.34375 0.34375 0.51953 0.34375 0.82812-0.125 0.60938-0.34375 0.82812-0.51953 0.34375-0.82812 0.34375z"/>
  <path d="m91.797 73.438c-0.30859 0-0.60938-0.125-0.82812-0.34375s-0.34375-0.51953-0.34375-0.82812 0.125-0.60938 0.34375-0.82812 0.51953-0.34375 0.82812-0.34375 0.60938 0.125 0.82812 0.34375 0.34375 0.51953 0.34375 0.82812-0.125 0.60938-0.34375 0.82812-0.51953 0.34375-0.82812 0.34375z"/>
  <path d="m74.219 89.062c-0.30859 0-0.60938-0.125-0.82812-0.34375s-0.34375-0.51953-0.34375-0.82812 0.125-0.60938 0.34375-0.82812 0.51953-0.34375 0.82812-0.34375 0.60938 0.125 0.82812 0.34375 0.34375 0.51953 0.34375 0.82812-0.125 0.60938-0.34375 0.82812-0.51953 0.34375-0.82812 0.34375z"/>
  <path d="m87.891 14.844c-0.30859 0-0.60938-0.125-0.82812-0.34375s-0.34375-0.51953-0.34375-0.82812 0.125-0.60938 0.34375-0.82812 0.51953-0.34375 0.82812-0.34375 0.60938 0.125 0.82812 0.34375 0.34375 0.51953 0.34375 0.82812-0.125 0.60938-0.34375 0.82812-0.51953 0.34375-0.82812 0.34375z"/>
 </g>
</svg>
